<?xml version="1.0" encoding="utf-8"?>
<!-- Generator: Adobe Illustrator 20.1.0, SVG Export Plug-In . SVG Version: 6.00 Build 0)  -->
<svg version="1.1" id="Layer_1" xmlns="http://www.w3.org/2000/svg" xmlns:xlink="http://www.w3.org/1999/xlink" x="0px" y="0px"
	 width="50px" height="2773px" viewBox="0 0 50 2773" style="enable-background:new 0 0 50 2773;" xml:space="preserve">
<style type="text/css">
	.st0{fill:#3F90BF;}
	.st1{fill:#CFE3EF;}
	.st2{fill:#FFFFFF;}
	.st3{fill:#2B3F55;}
	.st4{fill:#3CB6E8;}
	.st5{fill:#CAD4E0;}
	.st6{fill:#2EB4E9;}
	.st7{font-family:'MyriadPro-Regular';}
	.st8{font-size:40px;}
	.st9{fill:#0F2137;}
	.st10{fill-rule:evenodd;clip-rule:evenodd;fill:#FFFFFF;}
</style>
<g>
	<path class="st0" d="M31.9,26.8c0-3-2.5-5.4-5.5-5.4S21,23.8,21,26.8s2.5,5.4,5.4,5.4C29.5,32.2,31.9,29.7,31.9,26.8 M35.2,26.8
		c0,4.7-4,8.7-8.7,8.7c-2.5,0-4.7-1-6.4-2.7l-6.9,4.5c-0.2,0.2-0.5,0.2-1,0.2s-1-0.2-1.5-0.7c-0.2-0.7,0-1.7,0.7-2.2l6.9-4.5
		c-0.5-1-0.5-2-0.5-3.2c0-4.7,4-8.7,8.7-8.7C31.4,18.1,35.2,22.1,35.2,26.8 M48.5,38.9V17.1c0-2-0.7-3.5-2-5c-1.2-1.2-3-2-5-2H25.2
		v-1c0-2-0.7-3.5-2-5c-1.5-1.2-3-2-5-2H8.4c-2,0-3.5,0.7-5,2s-2,3-2,5v29.7c0,2,0.7,3.5,2,5c1.2,1.2,3,2,5,2h33.2c2,0,3.5-0.7,5-2
		C47.8,42.4,48.5,40.6,48.5,38.9"/>
</g>
<g>
	<g>
		<path class="st0" d="M17,112.9c-0.6,0-1.1,0-1.1-0.6c-1.7-0.6-2.2-2.2-1.1-3.3l14.3-24.8L14.8,59.5c-1.1-1.7-0.6-3.3,1.1-3.9
			c1.1-1.1,2.8-0.6,3.3,1.1l15.4,25.9c0.6,1.1,0.6,1.7,0,2.8l-14.9,26.4C18.7,112.3,18.1,112.9,17,112.9z"/>
	</g>
</g>
<polygon class="st1" points="47.7,130.5 3,154.7 47.7,178.3 "/>
<polygon class="st0" points="1.6,190.8 1.6,241.1 48.6,216.2 "/>
<g>
	<path class="st2" d="M25.5,249.5c-13.3,0-23.8,10.5-23.8,23.8S12.2,297,25.5,297s23.8-10.5,23.8-23.8S38.8,249.5,25.5,249.5z
		 M25.5,292.3c-10.4,0-19-8.5-19-19s8.6-19,19-19s19,8.5,19,19S36,292.3,25.5,292.3z"/>
	<path class="st2" d="M27.4,272.8V260c0-1.4-0.9-2.4-2.4-2.4c-1.4,0-2.4,1.4-2.4,2.4v13.8c0,0.5,0,1.4,0.5,1.4l7.1,8.1
		c0.5,0.5,0.9,0.9,1.9,0.9c0.5,0,0.9,0,1.4-0.5c1-1,1.4-2.9,0.5-3.8L27.4,272.8z"/>
</g>
<g>
	<path class="st0" d="M24.7,303c-13.2,0-24,10.8-24,24s10.8,24,24,24s24-10.8,24-24S37.9,303,24.7,303z M24.7,346.2
		c-10.8,0-19.2-8.4-19.2-19.2s8.4-19.2,19.2-19.2s19.2,8.4,19.2,19.2S35.5,346.2,24.7,346.2z"/>
	<path class="st0" d="M26.5,327v-13.2c0-1.2-1.2-2.4-2.4-2.4c-1.2,0-2.4,1.2-2.4,2.4v13.8c0,0.6,0,1.2,0.6,1.8l7.8,7.8
		c0,0.6,0.6,0.6,1.2,0.6s1.2,0,1.8-0.6c1.2-0.6,1.2-2.4,0-3L26.5,327z"/>
</g>
<g>
	<path class="st3" d="M25,405.2c13.6,0,24.7-11.1,24.7-24.7S38.6,355.8,25,355.8S0.3,366.9,0.3,380.5S11.4,405.2,25,405.2"/>
	<path class="st2" d="M24.3,389.9c-3.4,0-6.6-1.4-8.3-3.4c-0.3-0.3-0.3-0.9,0.2-1.2c0.3-0.3,1-0.3,1.2,0.2c1.5,1.7,4.1,2.7,7,2.7h2
		c1,0,2-0.2,3.1-0.5c1-0.3,1.7-0.7,2.4-1.4c0.5-0.5,1-1.7,0.7-2.6c-0.3-1.2-2-2-4.8-2.4l-5.6-0.5c-3.7-0.5-5.8-2.2-5.8-4.6
		c0-3.6,3.9-5.1,7.5-5.1h2c3.1,0,6,1.2,7.7,3.1c0.3,0.3,0.3,0.9,0,1.2c-0.3,0.3-0.9,0.3-1.2,0c-1.4-1.5-3.7-2.4-6.3-2.4h-2
		c-2,0-5.6,0.7-5.6,3.4c0,2,3.1,2.6,4.3,2.7l5.6,0.5c1.4,0.2,5.3,0.7,6.3,3.6c0.5,1.4,0,3.2-1,4.3c-0.7,0.7-1.7,1.4-3.1,1.7
		c-1.5,0.5-2.9,0.7-4.1,0.7L24.3,389.9L24.3,389.9z"/>
</g>
<g>
	<g>
		<path class="st3" d="M25.3,458.2c13.1,0,23.8-10.7,23.8-23.8c0-13.1-10.7-23.8-23.8-23.8S1.5,421.2,1.5,434.3
			C1.5,447.5,12.2,458.2,25.3,458.2"/>
		<path class="st2" d="M20.7,427.4c0.7,0,1.2,0.2,1.5,0.7c0.5,0.5,0.7,1,0.7,1.5c0,0.7-0.2,1.2-0.7,1.5c-0.5,0.5-1,0.7-1.5,0.7
			c-0.7,0-1.2-0.2-1.5-0.7c-0.5-0.5-0.7-1-0.7-1.5c0-0.7,0.2-1.2,0.7-1.5C19.6,427.6,20.1,427.4,20.7,427.4 M25.8,443.5
			c0.3,0.3,0.8,0.5,1.3,0.5s0.8-0.2,1.2-0.5l6.2-6.2c0.3-0.3,0.5-0.8,0.5-1.2c0-0.5-0.2-1-0.5-1.3l-10.2-10.2h-8.7v8.7L25.8,443.5z"
			/>
	</g>
</g>
<g>
	<g>
		<path class="st3" d="M25,510.5c13.1,0,23.8-10.7,23.8-23.8c0-13.1-10.7-23.8-23.8-23.8S1.2,473.5,1.2,486.7
			C1.2,499.8,11.9,510.5,25,510.5"/>
		<path class="st2" d="M20.6,492.6v4.4l4.4-4.4h5.6c1.3,0,2.1-0.5,2.8-1.6c0.3-0.5,0.5-1.2,0.5-1.8v-6.6c0-0.8-0.3-1.6-1-2.3
			s-1.5-1-2.3-1H19.4c-0.8,0-1.6,0.3-2.3,1s-1,1.3-1,2.3v6.6C16.1,491.4,17.6,492.6,20.6,492.6"/>
	</g>
</g>
<g>
	<g>
		<path class="st3" d="M25.2,565.7c13.4,0,24.3-10.9,24.3-24.3S38.6,517,25.2,517S0.8,527.9,0.8,541.3S11.7,565.7,25.2,565.7"/>
		<path class="st2" d="M22.1,534.8c-0.2-1-0.3-1.5-0.7-1.8c-0.3-0.3-1-0.3-2-0.3c-2.2,0-3.2,1.3-3.2,3.9c0,1.5,0.5,2.9,1.7,3.9v1
			c-1,0.2-2,0.5-3,1c-1.2,0.7-1.7,1.3-1.7,2c0,0.8,0.7,1.3,2,1.7c0.8,0.2,1.5,0.3,1.8,0.5c1.7-1.3,3.2-2,4.2-2.2
			c-0.8-1-1.3-2.5-1.3-4.5C20.1,537.3,20.8,535.8,22.1,534.8 M28.5,539.8c0-2.9-1.2-4.2-3.4-4.2l0,0l0,0c-2.2,0-3.4,1.3-3.4,4.2
			c0,1.7,0.7,3,1.8,4.2v1.2c-1,0-2.2,0.3-3.4,1c-1.3,0.8-2,1.3-2,2s0.5,1,1.5,1.2c1,0.3,2,0.5,3,0.7c0.7,0,1.3,0.2,2.2,0.2
			s1.5,0,2.2-0.2c1-0.2,2-0.3,3-0.7c1-0.3,1.5-0.7,1.5-1.2s-0.7-1.2-2-2c-1.2-0.7-2.3-1-3.4-1V544C27.9,543,28.5,541.7,28.5,539.8
			 M37.1,544.2c0-0.7-0.5-1.3-1.7-2c-1-0.5-2-0.8-3-1v-1c1.2-1,1.7-2.3,1.7-3.9c0-2.7-1-3.9-3.2-3.9c-1,0-1.7,0.2-2,0.3
			c-0.3,0.3-0.7,0.8-0.7,1.8c1.3,0.8,2,2.5,2,5c0,2-0.5,3.5-1.3,4.5c1,0.2,2.5,0.7,4.2,2.2c0.5-0.2,1.2-0.3,1.8-0.5
			C36.2,545.5,37.1,545,37.1,544.2"/>
	</g>
</g>
<g>
	<g>
		<path class="st3" d="M25.7,618.3c13.1,0,23.7-10.6,23.7-23.7c0-13.1-10.6-23.7-23.7-23.7S2,581.6,2,594.7
			C2,607.7,12.6,618.3,25.7,618.3"/>
		<path class="st2" d="M34.5,584.7c-0.3-0.5-1-0.7-1.5-0.7H21.6c-0.7,0-1.1,0.2-1.6,0.7s-0.7,1-0.7,1.6v1.1h2.3v-1.1H33v11.4h-1.1
			v2.3c0.8,0,1.6-0.2,2.3-0.3c0.8-0.2,1.1-0.8,1.1-2v-11.4C35.3,585.7,35,585.2,34.5,584.7"/>
		<path class="st2" d="M28.4,601H18.2v-10.3h10.3V601H28.4z M28.4,588.6H18.3c-0.7,0-1.1,0.2-1.6,0.7s-0.7,1-0.7,1.6v10.3
			c0,0.7,0.2,1.1,0.7,1.6s1,0.7,1.6,0.7h10.3c0.7,0,1.1-0.2,1.6-0.7s0.7-1,0.7-1.6v-10.3c0-0.7-0.2-1.1-0.7-1.6
			C29.6,588.8,29.1,588.6,28.4,588.6"/>
	</g>
	<rect x="19.3" y="597.9" class="st2" width="8" height="2"/>
	<rect x="19.3" y="595" class="st2" width="8" height="2"/>
	<rect x="19.3" y="591.9" class="st2" width="8" height="2"/>
</g>
<g>
	<g>
		<g>
			<path class="st3" d="M24.8,673c13.4,0,24.3-10.9,24.3-24.3s-10.9-24.3-24.3-24.3s-24.3,11-24.3,24.4S11.4,673,24.8,673"/>
		</g>
		<g>
			<path class="st2" d="M24.8,659.5c-5.9,0-10.7-4.8-10.7-10.7S18.9,638,24.8,638s10.7,4.8,10.7,10.7S30.6,659.5,24.8,659.5z
				 M24.8,642.9c-3.2,0-5.9,2.7-5.9,5.9s2.7,5.9,5.9,5.9s5.9-2.7,5.9-5.9S27.9,642.9,24.8,642.9z"/>
		</g>
	</g>
	<g>
		<rect x="22.6" y="629.5" class="st3" width="4.3" height="38.5"/>
	</g>
	<g>
		<rect x="5.5" y="646.6" class="st3" width="38.5" height="4.3"/>
	</g>
</g>
<g>
	<g>
		<path class="st4" d="M25.3,728.3c13.5,0,24.5-11,24.5-24.5s-11-24.5-24.5-24.5s-24.5,11-24.5,24.5S11.7,728.3,25.3,728.3"/>
		<path class="st2" d="M20,710.5v5.2l5.2-5.2h6.6c1.5,0,2.5-0.7,3.4-1.9c0.5-0.7,0.7-1.4,0.7-2v-7.9c0-1-0.3-2-1.2-2.7
			c-0.8-0.8-1.7-1.2-2.7-1.2H18.8c-1,0-2,0.3-2.7,1.2c-0.8,0.8-1.2,1.7-1.2,2.7v7.9C14.6,709.2,16.5,710.5,20,710.5"/>
	</g>
</g>
<g>
	<path class="st2" d="M29.1,737.8c-10.9,0-19.7,8.8-19.7,19.7c0,3.4,0.8,6.5,2.4,9.3c0,0-0.1,0-0.1,0.1l-10.2,7.2
		c-0.7,0.6-0.8,1.4-0.4,2.1c0.3,0.4,0.8,0.7,1.3,0.7c0.3,0,0.6-0.1,0.8-0.3l10.2-7.4l0,0c3.5,4.8,9.3,7.8,15.7,7.8
		c10.9,0,19.6-8.8,19.6-19.6S40,737.8,29.1,737.8z M29.1,773.9c-9.2,0-16.5-7.5-16.5-16.5s7.4-16.5,16.5-16.5s16.5,7.5,16.5,16.5
		S38.2,773.9,29.1,773.9z"/>
	<polygon class="st2" points="29.8,757 23,753 23,761.2 29.8,757.3 29.8,761.2 37,757.1 29.8,753 	"/>
</g>
<g>
	<g>
		<path class="st3" d="M24.8,834.5c13.2,0,24-10.8,24-24s-10.8-24-24-24s-24,10.8-24,24S11.5,834.5,24.8,834.5"/>
		<path class="st2" d="M37.8,811c-0.2-0.3-0.5-0.3-0.7-0.5l-5.5-1l-5.8-1.2c-0.3,0-0.8-0.2-1.2-0.2s-0.8,0-1.2,0.2l-11.3,2.2
			c-0.2,0-0.5,0.2-0.7,0.5s0.2,0.5,0.3,0.7l11.9,11.9c0.5,0.5,1.3,0.5,1.8,0l11.9-11.9C37.7,811.5,37.8,811.2,37.8,811"/>
		<path class="st2" d="M26.2,806.7l5.1,1c-0.8-2.5-3-4.5-5.6-5c1.2-0.5,2-1.5,2-2.8c0-1.7-1.3-3-3-3s-3,1.3-3,3c0,1.3,0.8,2.3,2,2.8
			c-2.6,0.3-4.8,2.3-5.6,5l5.1-1C24.1,806.5,25.4,806.5,26.2,806.7"/>
	</g>
</g>
<path class="st5" d="M48,888v-50.9H19.9c0,0-19,7.2-19,25.6S21.6,888,21.6,888H48z"/>
<path class="st5" d="M1.2,895.1V946h28.2c0,0,19-7.2,19-25.6c0-18.5-20.8-25.3-20.8-25.3L1.2,895.1L1.2,895.1z"/>
<g>
	<g>
		<path class="st2" d="M1.3,957.6c0-0.4,0-0.9,0.4-0.9c0.4-1.3,1.8-1.8,2.7-0.9l20,11.5l20-11.5c1.3-0.9,2.7-0.4,3.1,0.9
			c0.9,0.9,0.4,2.2-0.9,2.7l-20.9,12.4c-0.9,0.4-1.3,0.4-2.2,0l-21.3-12C1.8,958.9,1.3,958.5,1.3,957.6z"/>
	</g>
</g>
<g>
	<g>
		<path class="st6" d="M1.8,978.8c0-0.4,0-0.9,0.4-0.9c0.4-1.3,1.8-1.8,2.7-0.9l20,11.5l20-11.5c1.3-0.9,2.7-0.4,3.1,0.9
			c0.9,0.9,0.4,2.2-0.9,2.7L26.2,993c-0.9,0.4-1.3,0.4-2.2,0L2.7,981C2.3,980.1,1.8,979.6,1.8,978.8z"/>
	</g>
</g>
<g>
	<g>
		<path class="st2" d="M48.3,1010.7c0,0.4,0,0.9-0.4,0.9c-0.4,1.3-1.8,1.8-2.7,0.9l-20-11.5l-20,11.5c-1.3,0.9-2.7,0.4-3.1-0.9
			c-0.9-0.9-0.4-2.2,0.9-2.7l20.9-12.4c0.9-0.4,1.3-0.4,2.2,0l21.3,12C47.9,1009.4,48.3,1009.8,48.3,1010.7z"/>
	</g>
</g>
<g>
	<g>
		<path class="st6" d="M49.1,1031.7c0,0.4,0,0.9-0.4,0.9c-0.4,1.3-1.8,1.8-2.7,0.9L26,1022l-20,11.5c-1.3,0.9-2.7,0.4-3.1-0.9
			c-0.9-0.9-0.4-2.2,0.9-2.7l20.9-12.4c0.9-0.4,1.3-0.4,2.2,0l21.3,12C48.7,1030.4,49.1,1030.8,49.1,1031.7z"/>
	</g>
</g>
<g>
	<g>
		<path class="st4" d="M25.3,1088.3c13.5,0,24.5-11,24.5-24.5s-11-24.5-24.5-24.5s-24.5,11-24.5,24.5S11.7,1088.3,25.3,1088.3"/>
	</g>
</g>
<text transform="matrix(1 0 0 1 14.1668 1076.1666)" class="st2 st7 st8">£</text>
<g>
	<g>
		<path class="st4" d="M25.3,1146.3c13.5,0,24.5-11,24.5-24.5s-11-24.5-24.5-24.5s-24.5,11-24.5,24.5S11.7,1146.3,25.3,1146.3"/>
	</g>
</g>
<g>
	<path class="st2" d="M26.5,1109.3c-6.3,0-11.4,5.1-11.4,11.4c0,2,0.5,3.8,1.4,5.4c0,0-0.1,0-0.1,0.1l-5.9,4.2
		c-0.4,0.3-0.5,0.8-0.2,1.2c0.2,0.2,0.5,0.4,0.7,0.4s0.3-0.1,0.5-0.2l5.9-4.3l0,0c2,2.8,5.4,4.5,9.1,4.5c6.3,0,11.4-5.1,11.4-11.4
		S32.8,1109.3,26.5,1109.3z M26.5,1130.2c-5.3,0-9.6-4.3-9.6-9.6c0-5.2,4.3-9.6,9.6-9.6s9.6,4.3,9.6,9.6
		C36.1,1125.9,31.8,1130.2,26.5,1130.2z"/>
	<polygon class="st2" points="27,1120.4 23,1118.1 23,1122.9 27,1120.6 27,1122.9 31.1,1120.5 27,1118.1 	"/>
</g>
<g>
	<g>
		<path class="st9" d="M1.8,1164.4c0-0.4,0-0.9,0.4-0.9c0.4-1.3,1.8-1.8,2.7-0.9l20,11.5l20-11.5c1.3-0.9,2.7-0.4,3.1,0.9
			c0.9,0.9,0.4,2.2-0.9,2.7l-20.9,12.4c-0.9,0.4-1.3,0.4-2.2,0l-21.3-12C2.3,1165.8,1.8,1165.3,1.8,1164.4z"/>
	</g>
</g>
<path class="st10" d="M2,1189.1h45.5l-22,17.3L2,1189.1z"/>
<g>
	<g>
		<path d="M20,1274.9c-0.6,0-1.1,0-1.1-0.6c-1.7-0.6-2.2-2.2-1.1-3.3l14.3-24.8l-14.3-24.7c-1.1-1.7-0.6-3.3,1.1-3.9
			c1.1-1.1,2.8-0.6,3.3,1.1l15.4,25.9c0.6,1.1,0.6,1.7,0,2.8l-14.9,26.4C21.7,1274.3,21.1,1274.9,20,1274.9z"/>
	</g>
</g>
</svg>
